%
T1C.035F197S55
X-076Y00325
X-074Y00325
X-06475Y004
X-063Y003
X-061Y003
X-0595Y00325
X-05425Y-00125
X-05425Y-0025
X-04275Y00525
X-0595Y00525
X-06475Y005
X-0695Y00675
X-0705Y00675
X-0715Y00675
X-0725Y00675
X-0735Y00675
X-0745Y00675
X-0755Y00675
X-0755Y00975
X-0745Y00975
X-0735Y00975
X-0725Y00975
X-0715Y00975
X-0705Y00975
X-0695Y00975
X-0459Y01305
X-04275Y01025
X-0459Y01805
X-0605Y01475
X-0605Y01675
T2C.037F197S55
X-0745Y-00075
X-072Y002
X-0705Y00075
X-0695Y-00075
X-067Y002
X-0655Y00075
X-057Y0005
X-05425Y00175
X-052Y0005
X-0445Y00525
X-04675Y0025
X-05175Y0025
X-05425Y00675
X-06625Y00275
X-0685Y00375
X-0695Y00375
X-0705Y00375
X-07175Y005
X-07675Y005
X-07Y01125
X-06625Y00775
X-065Y01125
X-055Y011
X-0515Y01175
X-04785Y0116
X-0445Y01025
X-04285Y0116
X-0495Y01575
X-0515Y01675
X-05475Y013
X-0575Y01225
X-058275Y014778
X-05925Y0135
X-06175Y01475
X-0625Y01225
X-06675Y01475
X-0681Y01325
X-0681Y01825
X-0675Y0205
X-0662Y01775
X-06575Y022
X-0625Y0205
X-0612Y01775
X-06075Y022
X-05925Y0185
X-0557Y01925
X-05475Y018
X-0507Y01925
X-0495Y02075
T3C.04F139S55
X-07225Y02
X-07125Y021
X-07025Y02
T4C.044F139S55
X-0635Y007
X-0625Y007
X-0615Y007
X-0605Y007
X-0595Y007
X-0585Y007
X-0575Y007
X-05275Y007
X-05175Y007
X-05075Y007
X-04975Y007
X-04875Y007
X-04775Y007
X-04675Y007
X-04675Y01
X-04775Y01
X-04875Y01
X-04975Y01
X-05075Y01
X-05175Y01
X-05275Y01
X-0575Y01
X-0585Y01
X-0595Y01
X-0605Y01
X-0615Y01
X-0625Y01
X-0635Y01
T5C.052F107S55
X-0785Y01175
X-063Y-00225
X-061Y-00225
X-0785Y01375
X-0785Y01575
X-0785Y01775
X-0785Y01975
T6C.15F035S9
X-07125Y0135
T7C.15748F035S9
X-0785Y-00275
X-0435Y-00275
X-0435Y02275
X-07875Y02275
M30
