%
T1C.032F197S55
X1945Y1975
X1955Y1975
X1955Y2005
X1945Y2005
X1985Y2005
X1975Y2005
X1965Y2005
X2005Y2005
X1995Y2005
X1975Y1975
X1985Y1975
X1965Y1975
X1995Y1975
X2005Y1975
X2015Y1975
X2025Y1975
X2015Y2005
X2025Y2005
T2C.035F197S55
X188Y195
X191Y195
X191Y197
X188Y197
X191Y203
X191Y204
X193Y204
X195Y204
X195Y203
X193Y203
X197Y203
X201Y203
X199Y203
X201Y204
X197Y204
X199Y204
X203Y204
X205Y204
X205Y203
X203Y203
X207Y203
X209Y203
X207Y204
X209Y204
T3C.037F197S55
X2035Y1975
X2075Y1975
X2075Y196
X2075Y194
X206Y1915
X21Y1915
X2115Y194
X2115Y196
X2145Y2025
X2145Y2035
X2145Y2045
T4C.04F139S55
X1875Y1985
X1865Y1995
X1885Y1995
T5C.043F139S55
X1875Y191
X1875Y193
X217Y197
X217Y195
X217Y193
X217Y191
T6C.062F089S55
X196Y192
X199Y192
X203Y194
X206Y194
X2045Y1915
T7C.15F035S9
X1875Y206
T8C.15748F035S9
X193Y192
X193Y2065
X2115Y2065
X2115Y192
M30
