%
T1C.035F197S55
X-089Y0045
X-087Y0045
X-083Y0045
X-081Y0045
X-082Y-0085
X-081Y-0085
X-074Y-0065
X-074Y-0025
X-074Y0005
X-074Y0045
X-069Y0075
X-06775Y0075
X-071Y0045
X-071Y0005
X-071Y-0025
X-071Y-0065
X-065Y0075
X-06375Y0075
T2C.037F197S55
X-089Y-0085
X-084Y-0085
T3C.04F139S55
X-085Y006
X-086Y007
X-084Y007
T4C.042F139S55
X-083Y-0065
X-083Y-0055
X-083Y-0045
X-083Y-0035
X-083Y-0025
X-083Y-0015
X-083Y-0005
X-083Y0005
X-081Y0
X-081Y-001
X-081Y-002
X-081Y-003
X-081Y-004
X-081Y-005
X-081Y-006
T5C.043F139S55
X-094Y-0055
X-094Y-0035
X-094Y-0015
X-094Y0075
X-092Y0075
X-064Y0
X-064Y-002
T6C.06F089S55
X-078Y0065
X-078Y0085
X-072Y0085
X-072Y0065
T7C.15748F035S9
X-092Y-009
X-092Y01
X-066Y01
X-066Y-009
M30
